# xmcd
#
# Track frame offsets: 
#        150
#        17347
#        45212
#        73852
#        98640
#        119462
#        155312
#        183512
#
# Disc length: 2757 seconds
#
# Revision: 1
# Processed by: cddbd v1.5.2PL0 Copyright (c) Steve Scherf et al.
# Submitted via: ExactAudioCopy v0.95b4
#
DISCID=590ac308
DTITLE=Milt Jackson - Olinga
DYEAR=1974
DGENRE=Jazz
TTITLE0=Olinga
TTITLE1=Rerev
TTITLE2=The Metal Melter
TTITLE3=The Steel Bender
TTITLE4=Lost April
TTITLE5=I'm Not So Sure
TTITLE6=The Metal Melter
TTITLE7=The Steel Bender
EXTD=YEAR: 1974
EXTT0=
EXTT1=
EXTT2=
EXTT3=
EXTT4=
EXTT5=
EXTT6=
EXTT7=
PLAYORDER=
